<svg height='100px' width='100px'  fill="#eef1ef" xmlns="http://www.w3.org/2000/svg" xmlns:xlink="http://www.w3.org/1999/xlink" xml:space="preserve" version="1.1" style="shape-rendering:geometricPrecision;text-rendering:geometricPrecision;image-rendering:optimizeQuality;" viewBox="0 0 271 300" x="0px" y="0px" fill-rule="evenodd" clip-rule="evenodd"><defs><style type="text/css">
   
    .fil0 {fill:#eef1ef;fill-rule:nonzero}
   
  </style></defs><g><path class="fil0" d="M198 47c-38,69 -90,127 -149,179 -7,-14 -26,-27 -40,-31 30,-34 30,-40 51,-38 10,1 21,1 31,2 -9,-4 -17,-7 -26,-10 0,0 1,0 1,0 0,0 0,0 0,0 0,0 9,-6 -8,-7 44,-44 95,-95 117,-135 25,18 57,42 75,67 -5,-6 -45,-41 -52,-27zm65 54c-13,-2 -60,-42 -59,-51 6,-3 57,36 59,51zm-6 4c-58,45 -118,125 -156,187 -28,6 -62,-23 -60,-51 63,-53 118,-113 159,-185 9,16 40,42 57,49zm-81 -105l-5 1c-28,49 -71,91 -122,142 -4,4 10,2 13,4 1,0 -12,2 4,6 -9,-1 -23,-3 -27,0 0,0 0,0 0,0 -13,14 -26,27 -38,41 -7,8 33,10 43,37l-9 8c-7,47 62,70 71,57 0,0 0,0 0,0 44,-71 96,-138 162,-190 23,-19 -80,-97 -92,-106z"></path></g></svg>