<svg height='100px' width='100px'  fill="#eef1ef" xmlns="http://www.w3.org/2000/svg" xmlns:xlink="http://www.w3.org/1999/xlink" version="1.1" x="0px" y="0px" viewBox="0 0 154.402 110.998" style="enable-background:new 0 0 154.402 110.998;" xml:space="preserve"><g><path d="M147.402,70l-8-10l-3-23l-18-7l-10-12L98.236,3.666L79.569,0L61.402,12l-9,26l-1.412,6.117l9.205,9.78l6.055,7.262   l12.049,4.687l1.986,15.226l5.003,6.253l2.638,10.544l1.973,7.242V109h64.504V97l-3-11L147.402,70z M107.236,29.166l-12.5-15.332   l-13.5-2.5l-1.502-2.168l16.835-0.5L109.402,29L107.236,29.166z"></path><polygon points="85.9,105.649 84.055,98.879 81.622,89.145 76.464,82.699 74.641,68.715 63.833,64.511 57.188,56.54 47.315,46.048    35.006,39.797 22.817,52.877 21.26,67.222 23.508,77.192 11.63,83.787 9.797,96.014 0.289,108.694 0,110.998 85.9,110.998  "></polygon></g></svg>