<?xml version="1.0" encoding="utf-8"?>
<!-- Generator: Adobe Illustrator 24.2.3, SVG Export Plug-In . SVG Version: 6.00 Build 0)  -->
<svg version="1.1" id="Layer_1" xmlns="http://www.w3.org/2000/svg" xmlns:xlink="http://www.w3.org/1999/xlink" x="0px" y="0px"
	 viewBox="0 0 400 400" style="enable-background:new 0 0 400 400;" xml:space="preserve">
<style type="text/css">
	.st0{fill:#FF30D6;}
	.st1{fill:#45E9FF;}
	.st2{fill:#452CD6;}
</style>
<g>
	<path class="st0" d="M72.13,220.32v-32.6c1.82,1.98,3.88,3.74,6.13,5.24v-11.52c-3.81-4.33-6.13-9.99-6.13-16.2V127.4
		c0-13.54,11.01-24.55,24.55-24.55c6.22,0,11.91,2.33,16.24,6.16c6.29,0.26,12.13,2.26,17.06,5.55V90.02
		c0-14.56,11.85-26.41,26.41-26.41c6.46,0,12.38,2.33,16.98,6.2c8.02,0.48,15.31,3.65,21,8.63c4.39-8.78,13.47-14.82,23.93-14.82
		c6.5,0,12.46,2.33,17.1,6.2c7.87,0.49,15.05,3.56,20.71,8.37c3.61-7.23,11.09-12.21,19.7-12.21c5.9,0,11.27,2.34,15.22,6.13
		c4.52,0.05,8.8,1.08,12.65,2.88c-4.91-10.48-15.56-17.77-27.88-17.77c-11.42,0-21.4,6.25-26.71,15.51
		c-6.13-10.67-17.64-17.87-30.81-17.87c-13.34,0-24.99,7.4-31.06,18.31c-5.98-10.9-17.57-18.31-30.86-18.31
		c-19.39,0-35.16,15.77-35.16,35.16v14.9c-6.09-6.65-14.84-10.82-24.55-10.82c-18.36,0-33.3,14.94-33.3,33.3v92.93
		c0,34.19,15.64,64.79,40.13,85.03c-9.8-11.86-17.17-25.8-21.35-41.04C75.73,251,72.13,236.08,72.13,220.32z"/>
	<g>
		<path class="st1" d="M330.99,193.97c-2.22-5.93-5.43-11.49-9.53-16.43v-74.67c0-12.32-7.28-22.97-17.77-27.88
			c1.85,3.95,2.89,8.36,2.89,13v74.67c4.1,4.94,7.3,10.5,9.53,16.43c2.34,6.23,3.62,12.96,3.63,19.99v0c0,0.01,0,0.02,0,0.04
			c0,0,0,0,0,0c0,0.01,0,0.02,0,0.04c0,72.48-58.97,131.45-131.45,131.45h-14.64c-26.63,0-51.08-9.49-70.16-25.25
			c20.25,24.49,50.85,40.13,85.03,40.13h14.64c72.48,0,131.45-58.97,131.45-131.45c0-0.01,0-0.02,0-0.04c0,0,0,0,0,0
			c0-0.01,0-0.03,0-0.04v0C334.62,206.93,333.33,200.19,330.99,193.97z"/>
		<path class="st1" d="M78.25,142.27v39.17c4.5,5.12,11.09,8.35,18.43,8.35c13.54,0,24.55-11.01,24.55-24.55V127.4
			c0-7.31-3.22-13.89-8.31-18.39c-0.45-0.02-0.91-0.04-1.37-0.04C93.19,108.97,78.25,123.91,78.25,142.27z"/>
		<path class="st1" d="M82.16,264.32c16.42,34.02,51.27,57.54,91.5,57.54h14.64c67.66,0,122.7-55.04,122.7-122.7
			c0-0.01,0-0.02,0-0.04c0-0.01,0-0.01,0-0.01c0-0.01,0-0.02,0-0.02c0-0.01,0-0.01,0-0.02c0-0.01,0-0.01,0-0.01
			c0-0.01,0-0.02,0-0.03c0,0,0-0.01,0-0.01c-0.02-5.77-1.06-11.44-3.04-16.76c-6.87-18.42-24.65-31.57-45.43-31.57H135.95
			c-3.29,0-5.97,2.68-5.97,5.97v6.47c0,22.88,18.61,41.49,41.49,41.49h62.81v8.75h-0.72c-25.69,0-46.59,20.9-46.59,46.59v15.07
			h-8.75v-15.07c0-19.53,10.17-36.74,25.5-46.59h-32.25c-20.83,0-38.74-12.74-46.34-30.84c-5.85,9.59-16.41,16-28.45,16
			c-6.81,0-13.14-2.06-18.43-5.58v42.24C78.25,245.28,79.62,255.04,82.16,264.32z"/>
		<path class="st1" d="M263.99,87.61c-2.06-3.58-4.74-6.76-7.87-9.43c-1.48,2.96-2.31,6.29-2.31,9.81v53.95h8.73
			c13.31,0,25.58,4.57,35.31,12.22V87.99c0-6.24-2.61-11.87-6.79-15.88c-0.12,0-0.23-0.01-0.35-0.01
			C279.28,72.1,269.3,78.35,263.99,87.61z"/>
		<path class="st1" d="M202.12,88.05c-2-3.65-4.64-6.89-7.75-9.61c-1.8,3.59-2.82,7.64-2.82,11.93v51.59h53.5V90.36
			c0-8.25-3.76-15.64-9.65-20.55c-0.74-0.05-1.48-0.08-2.23-0.08C219.83,69.73,208.18,77.14,202.12,88.05z"/>
		<path class="st1" d="M136.1,104.9v14.9c-1.82-1.98-3.88-3.74-6.13-5.24v12.84c0,0,0,0,0,0v0v15.82c1.83-0.81,3.85-1.27,5.97-1.27
			h46.86V90.02c0-8.11-3.67-15.37-9.44-20.22c-0.7-0.04-1.39-0.07-2.1-0.07C151.87,69.73,136.1,85.51,136.1,104.9z"/>
	</g>
	<path class="st2" d="M188.3,330.61c72.48,0,131.45-58.97,131.45-131.45c0-0.01,0-0.02,0-0.04c0,0,0,0,0,0c0-0.01,0-0.03,0-0.04v0
		c-0.01-7.03-1.29-13.77-3.63-19.99c-2.22-5.93-5.43-11.49-9.53-16.43V87.99c0-4.64-1.04-9.05-2.89-13
		c-3.85-1.8-8.14-2.83-12.65-2.88c4.18,4.01,6.79,9.65,6.79,15.88v66.18c-9.73-7.65-22-12.22-35.31-12.22h-8.73V87.99
		c0-3.52,0.84-6.85,2.31-9.81c-5.66-4.81-12.84-7.88-20.71-8.37c5.89,4.91,9.65,12.3,9.65,20.55v51.59h-53.5V90.36
		c0-4.28,1.02-8.33,2.82-11.93c-5.69-4.98-12.99-8.15-21-8.63c5.77,4.85,9.44,12.11,9.44,20.22v51.92h-46.86
		c-2.12,0-4.15,0.45-5.97,1.27V127.4v0c0,0,0,0,0,0v-12.84c-4.93-3.28-10.77-5.29-17.06-5.55c5.09,4.5,8.31,11.07,8.31,18.39v37.85
		c0,13.54-11.01,24.55-24.55,24.55c-7.33,0-13.92-3.24-18.43-8.35v11.52c5.28,3.52,11.62,5.58,18.43,5.58
		c12.03,0,22.59-6.42,28.45-16c7.6,18.1,25.51,30.84,46.34,30.84h32.25c-15.33,9.85-25.5,27.05-25.5,46.59v15.07h8.75v-15.07
		c0-25.69,20.9-46.59,46.59-46.59h0.72v-8.75h-62.81c-22.88,0-41.49-18.61-41.49-41.49v-6.47c0-3.29,2.68-5.97,5.97-5.97h126.58
		c20.78,0,38.55,13.15,45.43,31.57c1.98,5.32,3.02,10.99,3.04,16.76c0,0,0,0.01,0,0.01c0,0.01,0,0.02,0,0.03c0,0,0,0.01,0,0.01
		c0,0.01,0,0.01,0,0.02c0,0.01,0,0.01,0,0.02c0,0,0,0.01,0,0.01c0,0.01,0,0.02,0,0.04c0,67.66-55.04,122.7-122.7,122.7h-14.64
		c-40.24,0-75.08-23.53-91.5-57.54c4.18,15.24,11.54,29.18,21.35,41.04c19.08,15.77,43.53,25.25,70.16,25.25H188.3z"/>
</g>
</svg>
