<?xml version="1.0" encoding="utf-8"?>
<!-- Generator: Adobe Illustrator 24.2.3, SVG Export Plug-In . SVG Version: 6.00 Build 0)  -->
<svg version="1.1" id="Layer_1" xmlns="http://www.w3.org/2000/svg" xmlns:xlink="http://www.w3.org/1999/xlink" x="0px" y="0px"
	 viewBox="0 0 400 400" style="enable-background:new 0 0 400 400;" xml:space="preserve">
<style type="text/css">
	.st0{fill:#45E9FF;}
	.st1{fill:#FF30D6;}
	.st2{fill:#452CD6;}
</style>
<g>
	<g>
		<path class="st0" d="M317.8,36.78c-3.06-4.06-7.01-7.2-11.52-9.23c2.32,5.1,3.16,10.77,2.36,16.46
			c-5.59,41.75-9.83,71.57-12.93,93.34c-9.36,65.81-9.36,65.81-9.36,130.59c0,0,0,0,0,0c0,31.46-11.89,59.94-33.49,80.19
			c-19.55,18.32-45.66,28.52-72.54,28.52c-2.28,0-4.57-0.07-6.85-0.22c-21.52-1.39-41.8-9.54-58.5-23.27
			c0.92,1.11,1.85,2.21,2.81,3.29c18.49,20.73,43.55,33.11,70.57,34.86c2.29,0.15,4.57,0.22,6.85,0.22
			c26.87,0,52.99-10.2,72.54-28.52c21.6-20.24,33.49-48.72,33.49-80.19c0,0,0,0,0,0c0-64.79,0-64.79,9.36-130.59
			c3.1-21.77,7.34-51.59,12.93-93.34C324.62,50.99,322.59,43.14,317.8,36.78z"/>
		<path class="st0" d="M186.69,152.63c3.12,4.88,4.94,10.67,4.94,16.89v41.24h37.54c20.42,0,38.37,10.76,48.49,26.9
			c0.26-37.38,1.68-47.35,9.39-101.55c3.1-21.76,7.33-51.56,12.93-93.3c0.96-6.85-1.5-13.38-6.06-17.91
			c-6.43,0-12.65,2.07-17.88,6.01c-6.36,4.79-10.48,11.78-11.58,19.64L248.5,159.99l-4.1-28.15l-6.45,44.27
			c-0.31,2.15-2.16,3.74-4.33,3.74c-2.17,0-4.02-1.59-4.33-3.74L209.1,37.35c-0.67-4.75-2.89-8.89-6.06-12.03
			c-1.35,0-2.71,0.09-4.09,0.28c-7.89,1.11-14.87,5.22-19.67,11.58c-4.79,6.36-6.82,14.21-5.71,22.1L186.69,152.63z"/>
		<path class="st0" d="M106.08,249.68c11.53,0,21.09-8.65,22.5-19.81c0-0.24-0.01-0.49-0.01-0.74c0-0.89,0.06-1.77,0.19-2.63v-32.55
			c0-6.52-2.77-12.4-7.19-16.54c-0.21,0-0.41-0.02-0.62-0.02c-17.33,0-31.43,14.1-31.43,31.43v33.65
			C93.66,246.9,99.55,249.68,106.08,249.68z"/>
		<path class="st0" d="M246.87,341.74c19.81-18.57,30.73-44.78,30.73-73.8c0-26.7-21.73-48.43-48.43-48.43h-82.22
			c-4.66,0-8.55,3.33-9.43,7.73c-0.01,1.02-0.06,2.03-0.17,3.02c0.6,18.47,15.81,33.3,34.42,33.3h41.5v8.75
			c-22.5,0-40.8,18.3-40.8,40.8v13.36h-8.75v-13.36c0-16.9,8.5-31.85,21.46-40.8h-13.41c-18.13,0-33.69-11.23-40.08-27.1
			c-5.7,7.99-15.05,13.21-25.6,13.21c-6.07,0-11.75-1.73-16.56-4.73v28.5c0,10.12,1.37,20.08,4,29.66
			c4.13,8.6,9.45,16.65,15.9,23.88c16.95,19.01,39.9,30.35,64.6,31.95C200.87,369.43,227.42,359.97,246.87,341.74z"/>
		<path class="st0" d="M233.63,145.11l6.36-43.63l-7.35-50.5c-1.47-10.47-8.25-18.91-17.23-23c1.14,2.52,1.95,5.24,2.36,8.12
			L233.63,145.11z"/>
		<path class="st0" d="M182.88,210.76v-41.24c0-6.52-2.77-12.4-7.19-16.54c-0.18,0-0.35-0.01-0.52-0.01c0,0,0,0,0,0
			c-0.01,0-0.02,0-0.03,0c-0.01,0-0.02,0-0.03,0c-0.01,0-0.02,0-0.04,0c-17.33,0-31.43,14.1-31.43,31.43v2.69
			c-1.82-1.9-3.88-3.57-6.12-4.96v11.83c0,0.04,0,0.08,0,0.12v19.3c2.76-1.66,5.99-2.61,9.43-2.61H182.88z"/>
	</g>
	<path class="st1" d="M306.27,27.55c-0.9-1.97-2.01-3.87-3.35-5.64c-4.79-6.36-11.78-10.48-19.67-11.59
		c-7.89-1.11-15.74,0.92-22.1,5.72c-6.36,4.79-10.48,11.78-11.58,19.64l-9.59,65.8l-6.36,43.63L217.76,36.11
		c-0.4-2.88-1.22-5.6-2.36-8.12c-5.32-11.75-17.92-19.14-31.32-17.26c-7.89,1.11-14.87,5.22-19.67,11.58
		c-4.79,6.36-6.82,14.21-5.71,22.1l13.5,96.06c-3.67-1.52-7.7-2.37-11.91-2.38c0,0,0,0,0,0c-0.01,0-0.02,0-0.03,0
		c-0.01,0-0.02,0-0.03,0c-0.01,0-0.02,0-0.04,0c-17.33,0-31.43,14.1-31.43,31.43v2.69c-5.73-5.97-13.78-9.69-22.68-9.69
		c-17.33,0-31.43,14.1-31.43,31.43v73.38c0,27.45,10.03,53.82,28.25,74.24c3.76,4.22,7.8,8.08,12.06,11.59
		c16.71,13.73,36.98,21.88,58.5,23.27c2.29,0.15,4.57,0.22,6.85,0.22c26.87,0,52.99-10.2,72.54-28.52
		c21.6-20.24,33.49-48.72,33.49-80.19c0,0,0,0,0,0c0-64.79,0-64.79,9.36-130.59c3.1-21.77,7.34-51.59,12.93-93.34
		C309.44,38.31,308.6,32.65,306.27,27.55z M137.51,169.52c0-12.51,10.18-22.68,22.68-22.68c0.01,0,0.02,0,0.03,0
		c0.01,0,0.02,0,0.03,0c4.1,0.01,8.11,1.14,11.59,3.23c1.38,0.83,2.66,1.81,3.83,2.91c4.42,4.14,7.19,10.02,7.19,16.54v41.24h-35.93
		c-3.45,0-6.67,0.95-9.43,2.61v-19.3c0-0.04,0-0.08,0-0.12v-11.83V169.52z M83.39,193.95c0-12.51,10.18-22.68,22.68-22.68
		c5.99,0,11.44,2.34,15.5,6.14c4.42,4.14,7.19,10.02,7.19,16.54v32.55c-0.12,0.86-0.19,1.73-0.19,2.63c0,0.25,0,0.49,0.01,0.74
		c-1.42,11.16-10.97,19.81-22.5,19.81c-6.53,0-12.42-2.77-16.56-7.2c-3.79-4.06-6.13-9.5-6.13-15.48V193.95z M246.87,341.74
		c-19.45,18.23-46,27.69-72.84,25.95c-24.71-1.6-47.65-12.95-64.6-31.95c-6.45-7.23-11.78-15.28-15.9-23.88
		c-6.61-13.77-10.12-28.96-10.12-44.53v-18.59c1.82,1.9,3.88,3.57,6.13,4.97c4.81,2.99,10.49,4.73,16.56,4.73
		c10.55,0,19.9-5.22,25.6-13.21c6.39,15.87,21.95,27.1,40.08,27.1h13.41c-12.95,8.95-21.46,23.9-21.46,40.8v13.36h8.75v-13.36
		c0-22.49,18.3-40.8,40.8-40.8v-8.75h-41.5c-18.61,0-33.82-14.84-34.42-33.3c0.1-0.99,0.16-2,0.17-3.02
		c0.88-4.4,4.78-7.73,9.43-7.73h82.22c26.7,0,48.43,21.73,48.43,48.43C277.59,296.96,266.68,323.17,246.87,341.74z M299.97,42.81
		c-5.59,41.74-9.83,71.54-12.93,93.3c-7.71,54.2-9.13,64.17-9.39,101.55c-10.12-16.14-28.07-26.9-48.49-26.9h-37.54v-41.24
		c0-6.21-1.82-12.01-4.94-16.89c-1.36-2.12-2.95-4.07-4.76-5.8L167.36,43.19c-0.78-5.57,0.65-11.12,4.04-15.62
		c3.39-4.5,8.32-7.4,13.9-8.19c6.76-0.95,13.23,1.45,17.75,5.93c3.17,3.14,5.39,7.28,6.06,12.03l20.2,138.75
		c0.31,2.15,2.16,3.74,4.33,3.74c2.17,0,4.02-1.59,4.33-3.74l6.45-44.27l13.83-94.92c0.78-5.57,3.69-10.51,8.19-13.9
		c4.5-3.39,10.05-4.82,15.62-4.04c4.67,0.66,8.76,2.82,11.87,5.92C298.46,29.43,300.93,35.96,299.97,42.81z"/>
	<g>
		<path class="st2" d="M229.29,176.1c0.31,2.15,2.16,3.74,4.33,3.74c2.17,0,4.02-1.59,4.33-3.74l6.45-44.27l-4.42-30.36l-6.36,43.63
			L217.76,36.11c-0.4-2.88-1.22-5.6-2.36-8.12c-3.8-1.73-8-2.68-12.36-2.67c3.17,3.14,5.39,7.28,6.06,12.03L229.29,176.1z"/>
		<path class="st2" d="M306.27,27.55c-2.56-1.15-5.29-1.95-8.14-2.35c-1.41-0.2-2.82-0.29-4.22-0.29
			c4.56,4.53,7.02,11.06,6.06,17.91c-5.59,41.74-9.83,71.54-12.93,93.3c-7.71,54.2-9.13,64.17-9.39,101.55
			c-10.12-16.14-28.07-26.9-48.49-26.9h-37.54v-41.24c0-6.21-1.82-12.01-4.94-16.89l0.38,2.71c-3.52-1.46-7.36-2.29-11.39-2.37
			c4.42,4.14,7.19,10.02,7.19,16.54v41.24h-35.93c-3.45,0-6.67,0.95-9.43,2.61v-19.3c0-0.04,0-0.08,0-0.12v-11.83
			c-4.65-2.89-10.1-4.6-15.94-4.71c4.42,4.14,7.19,10.02,7.19,16.54v32.55c-0.12,0.86-0.19,1.73-0.19,2.63c0,0.25,0,0.49,0.01,0.74
			c-1.42,11.16-10.97,19.81-22.5,19.81c-6.53,0-12.42-2.77-16.56-7.2v11.22c4.81,2.99,10.49,4.73,16.56,4.73
			c10.55,0,19.9-5.22,25.6-13.21c6.39,15.87,21.95,27.1,40.08,27.1h13.41c-12.95,8.95-21.46,23.9-21.46,40.8v13.36h8.75v-13.36
			c0-22.49,18.3-40.8,40.8-40.8v-8.75h-41.5c-18.61,0-33.82-14.84-34.42-33.3c0.1-0.99,0.16-2,0.17-3.02
			c0.88-4.4,4.78-7.73,9.43-7.73h82.22c26.7,0,48.43,21.73,48.43,48.43c0,29.02-10.91,55.23-30.73,73.8
			c-19.45,18.23-46,27.69-72.84,25.95c-24.71-1.6-47.65-12.95-64.6-31.95c-6.45-7.23-11.78-15.28-15.9-23.88
			c4.13,15.04,11.4,29.12,21.44,41.29c16.71,13.73,36.98,21.88,58.5,23.27c2.29,0.15,4.57,0.22,6.85,0.22
			c26.87,0,52.99-10.2,72.54-28.52c21.6-20.24,33.49-48.72,33.49-80.19c0,0,0,0,0,0c0-64.79,0-64.79,9.36-130.59
			c3.1-21.77,7.34-51.59,12.93-93.34C309.44,38.31,308.6,32.65,306.27,27.55z"/>
	</g>
</g>
</svg>
