<svg height='100px' width='100px'  fill="#eef1ef" xmlns="http://www.w3.org/2000/svg" xmlns:xlink="http://www.w3.org/1999/xlink" version="1.1" x="0px" y="0px" viewBox="0 0 100 100" enable-background="new 0 0 100 100" xml:space="preserve"><path d="M45.979,50.386c0.003,0.049,0.015,0.098,0.04,0.144l0.236,0.439c0.013,0.023,0.036,0.035,0.052,0.055  c0.008,0.01,0.005,0.024,0.015,0.033l0.427,0.404c0.005,0.005,0.012,0.003,0.017,0.007c0.021,0.018,0.038,0.037,0.062,0.05  l0.608,0.316c0.009,0.005,0.019,0.003,0.028,0.007c0.012,0.005,0.022,0.015,0.035,0.019l0.731,0.213  c0.011,0.004,0.022,0.003,0.034,0.005c0.007,0.001,0.013,0.006,0.021,0.007l0.821,0.102c0.014,0.002,0.029,0.002,0.043,0.002  c0.007,0,0.013,0,0.02,0l0.832-0.045c0.004,0,0.007-0.002,0.011-0.003c0.011-0.001,0.021-0.001,0.032-0.003l0.81-0.145  c0.008-0.002,0.015-0.007,0.023-0.01c0.01-0.002,0.02-0.001,0.029-0.004l0.72-0.248c0.018-0.006,0.029-0.018,0.045-0.026  c0.008-0.004,0.018-0.002,0.025-0.007l0.585-0.361c0.015-0.01,0.024-0.023,0.036-0.034c0.013-0.01,0.027-0.015,0.037-0.026  l0.395-0.428c0.01-0.011,0.005-0.025,0.014-0.037c0.014-0.02,0.035-0.03,0.046-0.053l0.213-0.459  c0.002-0.004,0.001-0.01,0.003-0.014c0.01-0.021,0.012-0.045,0.017-0.068c0.005-0.022,0.011-0.045,0.011-0.068  c0-0.005,0.002-0.009,0.002-0.014l-0.021-0.463c0-0.001,0-0.002,0-0.002c-0.003-0.047-0.015-0.094-0.037-0.139l-0.225-0.449  c-0.02-0.039-0.047-0.07-0.077-0.098c-0.001-0.002-0.001-0.004-0.003-0.006l-0.005-0.005c-0.001-0.001-0.001-0.001-0.001-0.001  l-0.432-0.389c-0.006-0.004-0.013-0.002-0.018-0.006c-0.015-0.012-0.025-0.027-0.042-0.037l-0.742-0.428  c-0.002-0.001-0.005,0-0.007-0.001c-0.003-0.002-0.005-0.005-0.008-0.007l-0.439-0.225c-0.012-0.006-0.025-0.006-0.038-0.011  c-0.01-0.004-0.018-0.012-0.029-0.015l-0.53-0.146c-0.004-0.001-0.008,0.003-0.013,0.002c-0.009-0.002-0.016-0.008-0.025-0.01  l-0.572-0.09c-0.011-0.002-0.021,0.002-0.032,0.002c-0.012-0.001-0.022-0.006-0.036-0.006l-0.608,0.021  c-0.009,0-0.016,0.005-0.025,0.006c-0.008,0.001-0.016-0.002-0.024,0l-0.562,0.1c-0.012,0.002-0.021,0.01-0.033,0.014  c-0.009,0.002-0.019,0-0.028,0.004l-0.517,0.191c-0.012,0.005-0.021,0.014-0.032,0.02c-0.01,0.006-0.021,0.006-0.03,0.012  l-0.416,0.258c-0.002,0.002-0.004,0.004-0.006,0.006c-0.001,0.001-0.003,0.001-0.004,0.002l-0.721,0.484  c-0.011,0.007-0.01,0.021-0.02,0.029c-0.011,0.009-0.026,0.006-0.036,0.016l-0.404,0.416c-0.003,0.004-0.002,0.009-0.005,0.013  c-0.025,0.028-0.05,0.058-0.066,0.095l-0.203,0.473c-0.001,0.003-0.001,0.007-0.002,0.01c-0.008,0.021-0.01,0.043-0.014,0.065  c-0.004,0.023-0.011,0.047-0.011,0.07c0,0.003-0.001,0.006-0.001,0.009l0.022,0.461C45.978,50.383,45.979,50.384,45.979,50.386z   M47.639,49.019l0.211-0.21l0.359-0.223l0.453-0.168l0.512-0.091l0.541-0.02l0.517,0.081l0.485,0.135l0.361,0.185l0.229,0.205  l0.098,0.195l0.013,0.183l-0.085,0.197l-0.221,0.22l-0.354,0.22l-0.439,0.166l-0.535,0.091l-0.535,0.02l-0.524-0.079l-0.477-0.132  l-0.356-0.188l-0.226-0.208l-0.103-0.192l-0.005-0.181L47.639,49.019z M46.805,49.627l0.069-0.071  c0.006,0.036,0.014,0.072,0.032,0.106l0.169,0.316c0.013,0.024,0.037,0.037,0.055,0.057c0.009,0.011,0.006,0.025,0.016,0.035  l0.305,0.281c0.005,0.005,0.013,0.003,0.019,0.007c0.018,0.016,0.033,0.034,0.055,0.046l0.427,0.225  c0.01,0.006,0.021,0.004,0.032,0.008c0.013,0.006,0.024,0.016,0.038,0.02l0.529,0.146c0.008,0.002,0.015,0.002,0.023,0.004  c0.006,0.001,0.011,0.005,0.018,0.006l0.585,0.088c0.018,0.004,0.035,0.004,0.052,0.004c0,0,0,0,0,0c0.005,0,0.009,0,0.014,0  l0.597-0.021c0.003,0,0.006-0.002,0.009-0.002c0.012-0.001,0.024-0.002,0.037-0.004l0.585-0.1c0.011-0.002,0.019-0.009,0.029-0.012  c0.012-0.003,0.024-0.001,0.036-0.006l0.506-0.191c0.016-0.006,0.025-0.018,0.04-0.025c0.007-0.004,0.015-0.002,0.021-0.006  l0.416-0.258c0.02-0.012,0.031-0.029,0.048-0.045c0.005-0.004,0.011-0.002,0.015-0.006l0.293-0.293  c0.012-0.011,0.008-0.028,0.018-0.04c0.018-0.023,0.045-0.039,0.057-0.067l0.146-0.338c0.001-0.004,0.001-0.008,0.003-0.012  c0.008-0.022,0.01-0.046,0.014-0.07c0.001-0.003,0.002-0.006,0.002-0.009l0.063,0.056l0.163,0.324l0.014,0.303l-0.154,0.331  l-0.324,0.353l-0.51,0.315l-0.657,0.226l-0.772,0.139l-0.769,0.041l-0.767-0.095l-0.668-0.194l-0.534-0.278l-0.35-0.331l-0.172-0.32  l-0.015-0.301L46.805,49.627z"></path><path d="M97.268,55.469c0-0.003-0.002-0.005-0.002-0.007c-0.001-0.003,0-0.005,0-0.007l-0.034-0.303l-0.032-0.293  c0-0.009-0.006-0.016-0.008-0.023c-0.001-0.008,0.002-0.016,0-0.023l-0.068-0.27c0,0-0.001,0-0.001-0.001v-0.001l-0.078-0.305  c-0.001-0.005-0.005-0.008-0.006-0.012s0-0.008-0.001-0.012l-0.092-0.27c-0.001-0.004-0.004-0.006-0.005-0.01  c-0.002-0.004-0.001-0.009-0.003-0.014l-0.111-0.267c0-0.001,0-0.001,0-0.001l-0.124-0.305c-0.002-0.005-0.006-0.008-0.009-0.012  c-0.001-0.004,0-0.008-0.002-0.012l-0.135-0.27c-0.002-0.003-0.004-0.004-0.006-0.007s-0.002-0.006-0.003-0.009l-0.39-0.69  c0-0.001,0-0.002-0.001-0.003l-0.146-0.27c-0.001-0.002-0.004-0.004-0.005-0.006c-0.002-0.003-0.002-0.006-0.003-0.008l-0.169-0.281  c-0.004-0.006-0.01-0.01-0.014-0.016c-0.002-0.003-0.001-0.007-0.003-0.01l-0.18-0.248c-0.005-0.006-0.014-0.006-0.019-0.012  s-0.002-0.014-0.008-0.02l-0.775-0.844c-0.01-0.01-0.024-0.007-0.034-0.016s-0.009-0.023-0.02-0.031l-1.035-0.742  c-0.008-0.006-0.017-0.007-0.025-0.012s-0.014-0.013-0.022-0.018l-1.271-0.631c-0.01-0.004-0.02-0.004-0.027-0.007  s-0.012-0.009-0.02-0.011l-1.463-0.484c-0.006-0.002-0.014-0.001-0.021-0.003c-0.006-0.001-0.011-0.006-0.017-0.007l-1.584-0.338  c-0.008-0.002-0.016,0.001-0.023,0c-0.007-0.001-0.013-0.006-0.02-0.006l-1.677-0.146c-0.005-0.001-0.009,0.002-0.015,0.001  c-0.005,0-0.01-0.003-0.016-0.003h-1.721c-0.006,0-0.01,0.003-0.016,0.003c-0.008,0.001-0.016-0.003-0.023-0.001l-1.699,0.193  c-0.007,0.001-0.012,0.004-0.018,0.006c-0.006,0.001-0.013-0.002-0.02,0l-1.619,0.359c-0.004,0.001-0.008,0.004-0.012,0.006  c-0.008,0.002-0.014,0-0.021,0.002l-1.508,0.496c-0.008,0.003-0.014,0.009-0.021,0.012c-0.01,0.004-0.02,0.003-0.027,0.008  l-1.316,0.664c-0.002,0.001-0.002,0.003-0.004,0.004s-0.005,0.001-0.007,0.002l-3.195,1.764l-0.136,0.032l-0.166,0.021  c0,0,0,0-0.002,0.001l-0.18,0.019l-0.199,0.012h-0.165L75.27,51.77c-0.004,0-0.006,0.002-0.01,0.002  c-0.003,0-0.006-0.002-0.009-0.002h-0.15l-0.134-0.035c-0.008-0.002-0.016,0-0.024-0.001c-0.01-0.002-0.018-0.008-0.027-0.009  l-0.878-0.088c-0.001,0-0.002,0-0.003,0s-0.001,0-0.001,0l-0.871-0.078c-0.002-0.001-0.004-0.002-0.005-0.002l-0.889-0.111  c-0.001,0-0.002,0-0.003,0l0,0l-0.867-0.102l0,0l-0.881-0.099c-0.001,0-0.002-0.001-0.003-0.001l-0.878-0.113  c-0.002,0-0.002,0-0.004,0c0,0,0,0-0.001,0l-0.871-0.101c-0.001-0.001-0.001-0.001-0.002-0.001l-0.889-0.113  c-0.001,0-0.001,0.001-0.003,0.001l-0.847-0.122c-0.001,0-0.002,0-0.003,0c-0.002,0-0.004-0.002-0.006-0.002l-0.867-0.101  c-0.001,0-0.002-0.001-0.004-0.001l-0.877-0.123c-0.002,0-0.004,0-0.005,0l-0.854-0.135c-0.003,0-0.005,0.001-0.007,0  c-0.003,0-0.005-0.002-0.007-0.002l-0.473-0.055h-0.001c-0.003,0-0.005-0.002-0.007-0.002l-0.473-0.045l-0.472-0.045  c-0.007,0-0.014,0.003-0.021,0.002c-0.005,0-0.008-0.002-0.013-0.002h-0.496h-0.483H61.48c-0.003,0-0.005,0.002-0.008,0.002  s-0.006-0.002-0.008-0.002l-0.484,0.021c-0.004,0-0.007,0.002-0.01,0.002c-0.003,0.001-0.005,0-0.007,0l-0.482,0.045  c-0.003,0-0.005,0.002-0.009,0.003c-0.003,0-0.006-0.001-0.008-0.001l-0.475,0.066c-0.002,0-0.003,0.002-0.005,0.002  c-0.001,0-0.003,0-0.003,0l-0.463,0.078c-0.003,0.001-0.006,0-0.008,0l-0.473,0.078c-0.004,0.001-0.007,0.003-0.01,0.004  c-0.004,0-0.007-0.001-0.01,0l-0.101,0.023c-0.028,0.006-0.051,0.021-0.075,0.033l-0.203-0.334c-0.006-0.01-0.016-0.016-0.022-0.025  c-0.015-0.02-0.031-0.038-0.051-0.055c-0.018-0.016-0.036-0.028-0.056-0.039c-0.012-0.007-0.019-0.017-0.03-0.021l-6.686-2.907  L30.984,26.134c-0.004-0.005-0.012-0.003-0.016-0.007c-0.005-0.004-0.003-0.012-0.008-0.016l-0.483-0.405  c-0.004-0.003-0.01-0.001-0.014-0.005c-0.004-0.003-0.003-0.009-0.008-0.012l-0.552-0.395c-0.002-0.002-0.005,0-0.008-0.002  c-0.006-0.004-0.009-0.01-0.015-0.014l-0.597-0.359c-0.002-0.001-0.005,0-0.007-0.001c-0.004-0.003-0.006-0.007-0.011-0.009  l-0.641-0.338c-0.004-0.002-0.008-0.002-0.012-0.004c-0.003-0.001-0.004-0.004-0.007-0.005l-0.697-0.314  c-0.003-0.001-0.006-0.001-0.01-0.002c-0.004-0.002-0.006-0.005-0.01-0.007l-0.743-0.281c-0.005-0.002-0.011-0.001-0.017-0.003  c-0.004-0.001-0.006-0.004-0.01-0.005l-0.775-0.227c-0.001,0-0.003,0-0.005,0c-0.001-0.001-0.002-0.002-0.003-0.002l-0.8-0.213  c-0.004-0.001-0.008,0-0.012-0.001c-0.003,0-0.005-0.003-0.008-0.003l-0.832-0.17c-0.003-0.001-0.006,0-0.009,0  c-0.004-0.001-0.007-0.003-0.011-0.004l-0.866-0.123c-0.001,0-0.001,0-0.002,0c-0.001,0-0.002-0.001-0.003-0.001l-0.877-0.112  c-0.006-0.001-0.012,0.002-0.018,0.001c-0.004,0-0.008-0.003-0.013-0.003l-0.889-0.033c-0.086-0.006-0.165,0.026-0.229,0.077  c-0.002,0.002-0.006,0.001-0.008,0.003l-0.012,0.01c0,0.001-0.001,0.002-0.002,0.002l-0.594,0.494  c-0.034,0.028-0.037,0.072-0.057,0.108c-0.022,0.04-0.056,0.071-0.062,0.116s0.018,0.083,0.03,0.127  c0.01,0.041,0.002,0.085,0.028,0.121l4.354,6.086c0.005,0.008,0.015,0.011,0.021,0.018c0.003,0.004,0.001,0.01,0.005,0.014  l11.307,12.475l-18.691-6.012c-0.004-0.001-0.008,0-0.013-0.002c-0.005-0.001-0.008-0.005-0.014-0.006L4.12,33.395  c-0.001,0-0.003,0-0.005,0c-0.001,0-0.002-0.002-0.004-0.002l-1.081-0.225c-0.006-0.001-0.012,0.001-0.019,0  c-0.018-0.003-0.034-0.003-0.052-0.003c-0.004,0-0.005-0.004-0.01-0.004c-0.01,0-0.019,0.006-0.029,0.007  c-0.013,0.002-0.026,0.002-0.04,0.005c-0.016,0.004-0.031,0.009-0.046,0.015c-0.017,0.006-0.031,0.014-0.046,0.023  c-0.01,0.005-0.02,0.01-0.028,0.016c-0.013,0.009-0.024,0.02-0.037,0.03c-0.013,0.012-0.024,0.024-0.035,0.038  c-0.009,0.011-0.017,0.021-0.024,0.033c-0.004,0.006-0.01,0.01-0.014,0.016c-0.003,0.007-0.003,0.014-0.006,0.021  c-0.007,0.016-0.012,0.032-0.017,0.049c-0.003,0.009-0.01,0.017-0.012,0.026c-0.001,0.007,0.001,0.013,0,0.02  c-0.002,0.014-0.003,0.026-0.003,0.04c0,0.008-0.004,0.014-0.004,0.021l0.022,0.867c0,0.007,0.007,0.011,0.007,0.017  c0.006,0.08,0.037,0.154,0.093,0.213c0.008,0.008,0.015,0.013,0.023,0.02c0.019,0.018,0.036,0.037,0.06,0.05l10.147,5.479  c0.005,0.003,0.011,0.002,0.017,0.004c0.006,0.003,0.01,0.009,0.016,0.011L46.34,54.047l1.079,1.443  c0.005,0.006,0.012,0.008,0.017,0.014c0.002,0.003,0.001,0.007,0.003,0.01l2.205,2.443c0.004,0.005,0.011,0.006,0.015,0.011  c0.018,0.018,0.04,0.03,0.061,0.044c0.02,0.013,0.038,0.026,0.059,0.035c0.004,0.001,0.006,0.004,0.011,0.006l0.577,0.199  l0.295,0.432c0.005,0.008,0.014,0.01,0.02,0.018c0.023,0.029,0.051,0.053,0.083,0.074c0.014,0.008,0.026,0.019,0.041,0.025  c0.007,0.003,0.011,0.009,0.018,0.012l3.934,1.541l-0.131,0.164c-0.002,0.002-0.001,0.005-0.002,0.007  c-0.002,0.003-0.006,0.002-0.008,0.005l-0.123,0.17c-0.002,0.001,0,0.003-0.002,0.004c-0.002,0.003-0.006,0.005-0.008,0.008  l-0.111,0.17c-0.004,0.004,0,0.01-0.003,0.014c-0.007,0.011-0.017,0.018-0.022,0.029l-0.08,0.168v0.001l-0.132,0.255l-0.163,0.262  c-0.001,0.001-0.001,0.003-0.002,0.004c0,0.002-0.002,0.002-0.003,0.004l-0.104,0.179l-0.109,0.163  c-0.004,0.006,0,0.013-0.004,0.018c-0.014,0.023-0.03,0.044-0.039,0.07l-0.068,0.215l-0.064,0.184c0,0.002,0,0.004,0,0.006  c-0.001,0.002-0.002,0.002-0.002,0.004l-0.057,0.178c-0.004,0.011-0.002,0.021-0.004,0.031c-0.002,0.012-0.01,0.021-0.011,0.033  l-0.022,0.191c-0.001,0.007,0.002,0.014,0.002,0.021s-0.004,0.013-0.004,0.021v0.193c0,0.002,0,0.004,0,0.006  c0,0.001,0,0.002,0,0.004l0.022,0.719c0,0.004,0.004,0.006,0.005,0.01c0,0.009-0.004,0.017-0.002,0.025l0.09,0.697  c0.001,0.004,0.005,0.006,0.006,0.01c0.001,0.008-0.001,0.015,0,0.021l0.158,0.697c0.002,0.004,0.006,0.006,0.006,0.01  c0.002,0.007,0,0.014,0.003,0.021l0.225,0.699c0.001,0.002,0.003,0.004,0.005,0.006c0.001,0.004,0,0.008,0.002,0.012l0.27,0.697  c0.001,0.004,0.006,0.006,0.008,0.01c0.002,0.007,0.002,0.015,0.006,0.021l0.338,0.674c0.002,0.004,0.006,0.005,0.008,0.009  c0.003,0.007,0.004,0.014,0.008,0.021l0.404,0.652c0.002,0.002,0.005,0.003,0.006,0.006c0.002,0.001,0,0.003,0.002,0.004  l0.572,0.855c0.001,0.001,0.002,0.001,0.002,0.002l0.439,0.641c0.004,0.006,0.011,0.008,0.015,0.013  c0.003,0.003,0.001,0.008,0.003,0.011l0.518,0.631c0.003,0.004,0.008,0.006,0.012,0.01c0.001,0.001,0,0.004,0.002,0.006l0.552,0.598  c0.003,0.003,0.008,0.002,0.011,0.005c0.004,0.003,0.002,0.009,0.006,0.013l0.619,0.584c0.002,0.002,0.006,0.001,0.008,0.003  c0.002,0.003,0.002,0.007,0.004,0.009l0.673,0.576l2.618,3.844c0.006,0.008,0.015,0.011,0.021,0.018  c0.023,0.029,0.05,0.053,0.081,0.073c0.014,0.009,0.025,0.02,0.039,0.026c0.046,0.021,0.096,0.035,0.148,0.035  c0.002,0,0.003,0,0.004,0l0.867-0.012c0.01,0,0.016-0.004,0.025-0.005c0.033-0.003,0.067-0.007,0.102-0.019l1.178-0.473h0.153h0.205  l0.19,0.021c0.004,0,0.006,0.002,0.008,0.002l0.225,0.021l0.218,0.022l0.171,0.038h0.002l0.213,0.045  c0.004,0.001,0.007,0,0.011,0.001c0.003,0.001,0.005,0.003,0.007,0.003l0.189,0.031l0.173,0.057c0.003,0.001,0.006,0,0.009,0.002  c0.004,0,0.006,0.003,0.009,0.004l0.155,0.041c0.001,0,0.002,0.002,0.003,0.002l0.552,0.168c0.004,0.001,0.008,0.001,0.012,0.002  c0.002,0,0.004,0.002,0.005,0.002l0.573,0.146c0.006,0.002,0.012,0.001,0.018,0.002c0.004,0.001,0.006,0.003,0.01,0.004l0.596,0.102  c0.004,0.001,0.007,0,0.01,0.001l0.593,0.091c0.007,0.001,0.013,0.001,0.019,0.002c0.002,0,0.002,0,0.002,0l0.607,0.057  c0.007,0,0.014,0,0.02,0l0.63,0.023c0.005,0,0.009,0,0.013,0h0.619c0.004,0,0.008,0,0.012,0l0.631-0.023c0.007,0,0.013,0,0.02,0  l0.629-0.057c0,0,0,0,0.002,0c0.006-0.001,0.012-0.001,0.019-0.002l0.603-0.091c0.004-0.001,0.009,0,0.014-0.001l0.594-0.102  c0.004-0.001,0.008-0.004,0.012-0.004c0.004-0.001,0.01-0.001,0.014-0.002l0.586-0.145c0.005-0.001,0.008-0.005,0.013-0.006  c0.004-0.001,0.009-0.001,0.013-0.002l0.482-0.158c0.003-0.001,0.005-0.003,0.007-0.004c0.004-0.001,0.008,0,0.012-0.002l0.462-0.18  c0.004-0.001,0.006-0.004,0.008-0.006c0.004-0.001,0.008,0,0.012-0.002l0.416-0.191c0.01-0.004,0.016-0.013,0.023-0.018  c0.005-0.002,0.01-0.001,0.014-0.004l0.383-0.236c0.006-0.004,0.01-0.01,0.015-0.014c0.004-0.002,0.009-0.001,0.013-0.004  l0.326-0.248c0.01-0.007,0.008-0.02,0.016-0.027c0.021-0.018,0.047-0.03,0.062-0.055l0.925-1.359l0.066-0.09  c0.005-0.006,0.001-0.015,0.005-0.021c0.007-0.01,0.018-0.014,0.023-0.024l0.181-0.338c0.008-0.015,0.009-0.031,0.014-0.046  c0.003-0.008,0.011-0.011,0.013-0.019l0.102-0.338c0.004-0.013,0-0.025,0.003-0.038c0.001-0.006,0.007-0.009,0.008-0.015  l0.046-0.338c0.002-0.014-0.003-0.025-0.002-0.039c0-0.014,0.006-0.026,0.004-0.041l-0.034-0.361  c-0.001-0.012-0.008-0.021-0.011-0.033c-0.002-0.011,0.001-0.021-0.002-0.033l-0.102-0.338c-0.002-0.006-0.006-0.011-0.008-0.017  c-0.002-0.005-0.002-0.01-0.004-0.015l-1.191-2.902c-0.008-0.018-0.021-0.029-0.031-0.045c-0.002-0.006,0-0.012-0.003-0.018  l-0.585-0.867c-0.011-0.017-0.027-0.026-0.04-0.04c-0.005-0.005-0.003-0.012-0.007-0.017l-4.861-4.668  c-0.008-0.008-0.02-0.005-0.029-0.012c-0.008-0.008-0.008-0.021-0.018-0.027l-6.267-4.219c-0.019-0.013-0.039-0.016-0.059-0.024  c-0.016-0.007-0.028-0.018-0.045-0.022l-4.448-1.21l-2.271-0.848l0.265-0.372c0.004-0.005,0.001-0.012,0.004-0.018  c0.036-0.056,0.062-0.119,0.062-0.191l-0.017-0.775l3.062-0.479l0.172,0.299c0.015,0.025,0.04,0.039,0.061,0.06  c0.016,0.017,0.027,0.032,0.045,0.045c0.059,0.04,0.123,0.067,0.193,0.068c0.002,0,0.002,0.001,0.004,0.001l0,0l0,0h0.001  c0.022,0,0.046-0.002,0.069-0.006l0.664-0.135c0,0,0.001-0.001,0.002-0.001l1.01-0.151c0.002,0,0.005,0,0.008,0l1.059-0.135  c0.001,0,0.002-0.001,0.004-0.002l1.021-0.098c0.002,0,0.006,0,0.008,0l1.07-0.068c0,0,0,0,0.001,0l1.056-0.033h1.066l1.037,0.01  h0.001l1.054,0.067c0.002,0,0.002,0.001,0.004,0.001l1.047,0.1c0.002,0,0.004,0,0.006,0l1.021,0.134  c0.001,0,0.002,0.001,0.003,0.001l1.005,0.144l0.543,0.099c0,0,0.001,0,0.002,0l0.552,0.121c0,0,0,0,0.001,0l0.551,0.137  c0,0,0.001,0,0.002,0l0.531,0.143l0.501,0.164c0.002,0.001,0.004,0,0.006,0.001l0.497,0.167c0.002,0,0.003,0,0.004,0.001l0.49,0.187  c0.002,0.001,0.004,0,0.005,0.001l0.448,0.182c0.001,0.001,0.001,0.001,0.002,0.001l0.46,0.203l0.442,0.209c0,0,0.001,0,0.002,0  l0.42,0.229l0.39,0.216l0.306,0.215l0.273,0.223l0.162,0.185l0.009,0.026l0.026,0.216l-0.01,0.222V58.1l-0.057,0.062  c-0.005,0.005-0.002,0.013-0.007,0.018c-0.015,0.018-0.032,0.031-0.043,0.053l-0.438,0.82c-0.014,0.026-0.018,0.055-0.025,0.082  c-0.002,0.01-0.006,0.017-0.008,0.026c-0.014,0.083,0.005,0.165,0.049,0.236c0.002,0.005,0,0.01,0.002,0.015l0.484,0.721  c0.002,0.003,0.006,0.004,0.008,0.007c0.029,0.041,0.065,0.078,0.112,0.104l0.766,0.428c0.054,0.029,0.112,0.043,0.171,0.043l0,0  l0,0c0.045,0,0.09-0.018,0.133-0.035c0.014-0.006,0.029-0.004,0.042-0.012c0.001,0,0.001,0,0.001,0l2.277-1.326l0.744,0.162  c0.003,0,0.006,0,0.008,0.001l0.619,0.144c0.004,0.001,0.009,0.001,0.014,0.002c0.004,0,0.007,0.003,0.011,0.004l0.641,0.102  c0.003,0,0.006,0,0.009,0.001l0.627,0.11c0.005,0.001,0.01,0,0.014,0.001l0.658,0.101c0.002,0,0.004,0,0.006,0  c0.002,0.001,0.004,0.002,0.005,0.002l0.651,0.078h0.001c0.003,0,0.004,0.002,0.007,0.002l0.674,0.066l0.676,0.068  c0.008,0,0.016,0,0.023,0l0.669,0.023c0.001,0,0.001,0,0.001,0l0.687,0.033c0.006,0,0.011,0,0.017,0l0,0h0.687h0.675l0,0  c0.006,0,0.01,0,0.015,0l0.765-0.033c0.001,0,0.002-0.001,0.004-0.001c0.008,0,0.016,0,0.024-0.001l0.731-0.09  c0.004-0.001,0.008-0.004,0.013-0.004c0.005-0.001,0.009-0.001,0.015-0.002l0.721-0.146c0.002-0.001,0.005-0.003,0.008-0.004  c0.006-0.001,0.012,0,0.018-0.002l0.674-0.189c0.007-0.002,0.012-0.007,0.018-0.009s0.011-0.001,0.016-0.003l0.629-0.246  c0.008-0.003,0.014-0.01,0.021-0.014c0.004-0.002,0.01-0.002,0.015-0.004l0.574-0.305c0.005-0.003,0.008-0.008,0.013-0.011  c0.004-0.002,0.008-0.001,0.011-0.003l0.495-0.314c0.012-0.007,0.018-0.019,0.027-0.026c0.006-0.004,0.013-0.002,0.018-0.007  l0.418-0.371c0.004-0.004,0.002-0.011,0.007-0.015c0.009-0.009,0.019-0.012,0.026-0.021l0.326-0.385  c0.005-0.006,0.002-0.016,0.006-0.021c0.009-0.011,0.021-0.016,0.028-0.027l0.237-0.404c0.004-0.006,0.004-0.014,0.007-0.02  c0.002-0.004,0.007-0.006,0.009-0.01l0.348-0.742c0.004-0.008,0.002-0.017,0.006-0.025c0.002-0.005,0.007-0.007,0.009-0.012  l0.146-0.438c0.007-0.02,0.005-0.039,0.007-0.059c0.002-0.007,0.009-0.011,0.01-0.018l0.045-0.439c0-0.011-0.004-0.02-0.004-0.03  s0.006-0.021,0.004-0.032L97.268,55.469z M26.001,29.782l-4.153-5.806l0.254-0.212l0.744,0.028l0.849,0.108  c0.001,0,0.002,0.001,0.003,0.001l0.863,0.123l0.808,0.164l0.787,0.21c0.001,0,0.003,0,0.004,0.001l0.761,0.222l0.703,0.267  l0.69,0.311l0.614,0.324l0.574,0.346l0.533,0.382l0.46,0.386l19.596,19.891l-3.424-1.469c-0.016-0.007-0.033-0.006-0.049-0.011  c-0.02-0.005-0.036-0.015-0.057-0.017l-3.609-0.334l-4.843-1.557L26.001,29.782z M17.888,37.371l19.917,6.406l4.972,1.598  c0.017,0.006,0.033,0.005,0.05,0.008c0.009,0.002,0.016,0.007,0.025,0.008l3.592,0.333l5.006,2.147  c0.002,0.001,0.002,0.002,0.003,0.002l6.647,2.891l0.393,0.648c0.001,0,0.002,0.001,0.002,0.001l1.064,1.745l-5.209,0.809  l-4.217-1.185c-0.051-0.02-0.105-0.03-0.164-0.021L47.697,53L13.256,38.696l-7.92-4.294L17.888,37.371z M47.968,55.055  L47.968,55.055l1.615,1.778l0.014,0.026L47.968,55.055z M48.389,54.477l1.615-0.168l4.238,1.195c0.031,0.01,0.062,0.014,0.094,0.014  l0,0c0,0,0,0,0.001,0c0.019,0,0.036-0.002,0.054-0.004l1.354-0.209l-0.5,0.69l-0.312-0.118c-0.016-0.006-0.032-0.004-0.048-0.008  c-0.021-0.005-0.039-0.015-0.061-0.016l-4.172-0.191c-0.066,0.002-0.131,0.027-0.189,0.062c-0.015,0.009-0.033,0.003-0.047,0.014  l-0.508,0.411L48.389,54.477z M58.602,57.994c0.006,0.002,0.012,0.001,0.018,0.003s0.009,0.006,0.014,0.007l4.414,1.201l6.186,4.164  l4.816,4.625l0.543,0.806l1.172,2.854l0.086,0.288l0.027,0.287l-0.036,0.27l-0.083,0.276l-0.151,0.284l-0.051,0.068  c-0.001,0.001,0,0.002-0.001,0.004c-0.002,0.003-0.006,0.004-0.008,0.008l-0.902,1.326l-0.262,0.199l-0.359,0.222l-0.39,0.179  l-0.425,0.166h-0.002l-0.484,0.158l0,0l-0.561,0.139c-0.001,0-0.002,0-0.002,0.001l-0.557,0.095c-0.002,0-0.003,0-0.004,0  l-0.584,0.088c-0.002,0-0.002,0-0.004,0l-0.609,0.055l0,0l-0.631,0.023h-0.595l-0.63-0.023c0,0,0,0-0.001,0l-0.587-0.055  c-0.002,0-0.002,0-0.003,0l-0.573-0.088c-0.002,0-0.003,0-0.004,0l-0.572-0.098l-0.542-0.138c0-0.001-0.001-0.001-0.001-0.001  l-0.552-0.168c-0.001,0-0.003,0-0.003,0c-0.004-0.001-0.005-0.003-0.008-0.004l-0.169-0.045c0,0,0,0-0.001,0l-0.184-0.061  c-0.01-0.003-0.018-0.001-0.027-0.004c-0.01-0.002-0.018-0.008-0.027-0.01l-0.213-0.035h-0.001l-0.193-0.041  c-0.001,0-0.001,0-0.001,0l-0.202-0.045c-0.008-0.002-0.015,0.001-0.022-0.001c-0.006-0.001-0.011-0.004-0.018-0.005l-0.225-0.023  l-0.221-0.021c0,0,0,0-0.001,0L63.983,74.9c-0.008-0.002-0.015,0.002-0.022,0.001c-0.006,0-0.01-0.003-0.016-0.003H63.72h-0.225  c-0.034,0-0.064,0.01-0.096,0.02c-0.012,0.003-0.023,0.002-0.034,0.006l-0.005,0.002c-0.001,0-0.002,0-0.003,0.001l-1.169,0.469  l-0.614,0.008l-2.539-3.728c-0.01-0.014-0.028-0.014-0.039-0.025c-0.012-0.013-0.009-0.031-0.021-0.043l-0.695-0.595v-0.001  l-0.616-0.581l-0.526-0.57l-0.505-0.616l-0.431-0.629c-0.001,0-0.002,0-0.002-0.001l-0.57-0.851l0,0l-0.389-0.625l-0.321-0.642  l-0.266-0.688l-0.213-0.663l-0.152-0.67l-0.087-0.666l-0.021-0.688V62.95l0.017-0.14l0.046-0.145l0.064-0.184  c0.001-0.002,0-0.003,0.001-0.005c0.001-0.001,0.002-0.002,0.003-0.003l0.053-0.168l0.085-0.127c0.002-0.003,0-0.006,0.002-0.009  c0.002-0.004,0.007-0.005,0.009-0.009l0.105-0.18c0-0.001,0.002-0.001,0.002-0.002l0.169-0.271c0.003-0.004,0.003-0.01,0.005-0.014  c0.003-0.004,0.008-0.006,0.01-0.01l0.145-0.281c0.002-0.003,0.002-0.006,0.003-0.008s0.003-0.002,0.003-0.004l0.071-0.148  l0.087-0.133l0,0l0.113-0.156l0,0l0.123-0.153l0.114-0.114c0.001,0,0.001,0,0.001,0l0.165-0.143l0.05-0.043h0.001l0.104-0.086  l0.025-0.016c0.009-0.006,0.008-0.018,0.016-0.023c0.004-0.002,0.008-0.001,0.012-0.004l0.035-0.023c0,0,0-0.001,0-0.002  c0.001,0,0.002,0,0.002,0l0.031-0.021c0.005-0.003,0.011-0.002,0.016-0.005l0.258-0.17c0.001,0,0.001-0.001,0.002-0.002l0,0  l0.17-0.111c0,0,0-0.001,0-0.002l0.311-0.199c0.162-0.104,0.209-0.32,0.105-0.482c-0.105-0.162-0.322-0.211-0.484-0.105  l-0.315,0.203c-0.001,0.001-0.001,0.002-0.002,0.003s-0.002,0.001-0.003,0.001l-0.164,0.108c-0.001,0.001-0.002,0.001-0.002,0.001  l-0.258,0.17c-0.002,0-0.002,0.002-0.002,0.002c-0.017,0.01-0.031,0.02-0.046,0.031c-0.005,0.003-0.012,0-0.017,0.004  c-0.004,0.003-0.004,0.01-0.008,0.013c-0.002,0.002-0.006,0.003-0.008,0.005c-0.005,0.003-0.012,0.001-0.016,0.004  c-0.014,0.009-0.013,0.025-0.023,0.035c-0.004,0.003-0.01,0-0.014,0.003l-4.172-1.634l-0.299-0.438l-0.143-0.237l-0.422-0.803  l0.437-0.354l3.982,0.183l0.513,0.194c0.002,0.001,0.004,0,0.006,0.001l0.636,0.236c0.001,0,0.002,0.001,0.002,0.001L58.602,57.994z   M56.465,54.484L56.465,54.484l-2.104,0.326l-4.208-1.188c-0.048-0.018-0.099-0.026-0.151-0.018l-2.285,0.238l-1.024-0.408h0  L13.276,39.539l-9.951-5.372l-0.001-0.06l9.615,5.213c0.005,0.003,0.01,0.002,0.016,0.004c0.006,0.003,0.01,0.009,0.017,0.012  L47.508,53.68c0.043,0.02,0.089,0.027,0.133,0.027h0h0c0.012,0,0.024,0,0.037-0.002l2.293-0.24l4.259,1.195  c0.031,0.01,0.063,0.014,0.094,0.014c0.001,0,0.001,0,0.001,0l0,0c0.018,0,0.035-0.002,0.054-0.004l5.411-0.84l0.004,0.135  L56.465,54.484z M96.552,56.151l-0.129,0.385l-0.335,0.714l-0.207,0.353l-0.293,0.347l-0.374,0.334l-0.463,0.293l-0.552,0.293  l-0.598,0.234l-0.639,0.18l-0.697,0.141l-0.703,0.087l-0.745,0.032h-0.66h-0.67l-0.687-0.033c0,0-0.001,0.001-0.002,0.001  s-0.002-0.001-0.002-0.001l-0.67-0.023l-0.658-0.066l-0.665-0.065c-0.001,0-0.002-0.001-0.003-0.001l-0.651-0.078  c-0.001,0-0.001,0-0.002,0l-0.651-0.1c-0.001,0-0.002,0-0.003,0l-0.631-0.111c-0.002,0-0.004,0-0.005,0s-0.001,0-0.001,0  l-0.616-0.098l-0.631-0.146c-0.001,0-0.002,0.001-0.003,0c-0.001,0-0.001,0-0.001,0l-0.861-0.188c-0.001,0-0.003-0.001-0.005-0.001  l-0.013-0.003c-0.016-0.004-0.031,0-0.048-0.001c-0.026-0.002-0.052-0.007-0.077-0.003c-0.035,0.006-0.067,0.019-0.099,0.034  c-0.009,0.004-0.019,0.004-0.026,0.009l-0.01,0.005c-0.002,0.001-0.004,0.003-0.006,0.004l-2.207,1.286l-0.518-0.289l-0.32-0.478  l0.318-0.596l0.084-0.093c0.007-0.008,0.004-0.02,0.01-0.028c0.012-0.015,0.029-0.022,0.039-0.04l0.09-0.17  c0.002-0.002,0.002-0.005,0.002-0.007c0.001-0.001,0.003-0.002,0.004-0.003l0.213-0.428c0.087-0.172,0.018-0.383-0.156-0.469  c-0.053-0.025-0.108-0.033-0.164-0.031l-0.041-0.131c-0.002-0.006-0.006-0.01-0.009-0.016c-0.003-0.007-0.001-0.015-0.005-0.021  l-0.123-0.281c-0.073-0.166-0.263-0.244-0.432-0.186l-0.029-0.023c-0.004-0.003-0.01-0.001-0.014-0.004s-0.003-0.009-0.007-0.012  l-0.337-0.236c-0.004-0.003-0.009,0-0.013-0.003c-0.007-0.004-0.011-0.011-0.018-0.015l-0.404-0.225c-0.001,0-0.001,0-0.002,0  c-0.001-0.001-0.001-0.002-0.001-0.002l-0.439-0.238c-0.004-0.002-0.008-0.002-0.012-0.004c-0.002-0.001-0.004-0.003-0.006-0.004  l-0.45-0.213c-0.001-0.001-0.003,0-0.005-0.001c-0.001-0.001-0.002-0.002-0.004-0.003l-0.461-0.203  c-0.002-0.001-0.004,0-0.006-0.002c-0.002,0-0.002-0.001-0.004-0.002l-0.472-0.191c-0.002-0.001-0.003,0-0.005-0.001  c-0.001,0-0.002-0.001-0.002-0.001l-0.507-0.193c-0.003-0.001-0.006,0-0.009-0.002c-0.002,0-0.003-0.002-0.004-0.002l-0.506-0.17  c-0.002,0-0.003,0-0.004,0l-0.517-0.17c-0.005-0.002-0.009,0-0.013-0.002c-0.002,0-0.004-0.002-0.006-0.002l-0.541-0.145  c0,0-0.001,0-0.002,0s-0.002-0.002-0.004-0.002l-0.551-0.137c-0.002,0-0.004,0-0.006,0c-0.001-0.001-0.002-0.002-0.004-0.002  l-0.562-0.123H73.32c-0.004-0.001-0.007-0.003-0.01-0.004l-0.562-0.102c-0.003,0-0.005,0-0.007,0s-0.004-0.002-0.006-0.002  l-1.012-0.145c-0.001,0-0.003,0-0.004,0s-0.001,0-0.001,0l-1.047-0.137c-0.002,0-0.002,0-0.004,0c-0.003,0-0.005-0.002-0.008-0.002  l-1.047-0.1h-0.002c-0.004,0-0.006-0.002-0.009-0.002l-1.068-0.068c-0.004,0-0.007,0.002-0.011,0.002  c-0.003,0-0.006-0.002-0.008-0.002l-1.057-0.01c-0.002,0-0.003,0-0.004,0h-1.081c-0.003,0-0.007,0-0.011,0l-1.068,0.033  c-0.002,0-0.004,0.001-0.006,0.001s-0.004-0.001-0.006-0.001l-1.068,0.068c-0.003,0-0.004,0.002-0.007,0.002  c-0.002,0-0.003-0.002-0.005-0.002l-1.057,0.102c-0.004,0-0.006,0.002-0.009,0.003c-0.001,0-0.001-0.001-0.003-0.001l-1.059,0.135  c-0.002,0-0.004,0.002-0.006,0.002c0,0-0.001,0-0.002,0l-1.045,0.156c-0.004,0.001-0.006,0.003-0.01,0.004c-0.003,0-0.005,0-0.008,0  l-0.416,0.084l-0.088-0.152l-0.021-0.814c0-0.005-0.004-0.008-0.005-0.013c-0.001-0.011,0.003-0.021,0.001-0.031  c0-0.001,0-0.001,0-0.001c-0.002-0.008-0.007-0.015-0.008-0.022c-0.009-0.036-0.019-0.073-0.039-0.106l-1.209-1.98l0.404-0.066  c0,0,0.001,0,0.002,0l0.457-0.078c0.002,0,0.004,0,0.006,0l0.465-0.065l0.474-0.044c0.001,0,0.002-0.001,0.003-0.001l0.465-0.021  h0.457h0.483h0.483l0.451,0.043l0.462,0.044c0.001,0,0.002,0.001,0.003,0.001l0.47,0.055l0.854,0.135c0.004,0,0.008,0,0.013,0.001  l0.872,0.122c0,0,0.001,0,0.002,0c0.002,0,0.004,0.002,0.006,0.002l0.863,0.1c0.002,0.001,0.004,0.002,0.005,0.002l0.855,0.123  c0.003,0,0.005,0,0.009,0l0.886,0.113c0.002,0,0.004,0,0.007,0l0.874,0.102c0.005,0.001,0.011,0,0.017,0.001l0.855,0.11  c0.002,0,0.004,0.002,0.006,0.002l0.888,0.1h0.001l0.86,0.101c0.001,0.001,0.001,0.001,0.002,0.001l0.889,0.111  c0.003,0,0.005,0,0.007,0s0.004,0.002,0.006,0.002l0.883,0.08c0.001,0,0.002,0,0.002,0l0.854,0.086l0.15,0.039  c0.029,0.008,0.058,0.01,0.087,0.01h0.174l0.202,0.012c0.007,0,0.013,0,0.019,0l0,0h0.201h0.001c0.007,0,0.013,0,0.019,0  l0.203-0.012c0.002,0,0.003-0.001,0.005-0.001c0.005-0.001,0.01,0,0.015-0.001l0.199-0.021c0.003,0,0.005,0,0.008,0l0.191-0.023  c0.005-0.001,0.01-0.004,0.015-0.005c0.008-0.001,0.015-0.001,0.022-0.003l0.191-0.045c0.02-0.005,0.035-0.017,0.053-0.023  c0.012-0.006,0.025-0.004,0.036-0.01l3.236-1.787l1.277-0.645l1.468-0.482l1.593-0.354l1.662-0.189h1.668l1.651,0.145l1.562,0.333  l1.412,0.467l1.221,0.606l0.98,0.703l0.738,0.802l0.161,0.223l0.156,0.26l0.143,0.263c0.001,0.001,0.001,0.001,0.001,0.002  c0.002,0.001,0.001,0.003,0.002,0.004l0.389,0.689l0.127,0.252l0.117,0.289l0,0c0.001,0.002,0,0.003,0.001,0.004l0.11,0.265  l0.081,0.241l0.073,0.287c0,0,0,0.001,0,0.002l0.063,0.249l0.028,0.265l0.001,0.001c0,0.001,0,0.001,0,0.001l0.032,0.29  c0,0.001,0,0.001,0,0.001l0.021,0.262L96.552,56.151z"></path><path d="M56.664,61.803c-0.03,0.02-0.056,0.043-0.078,0.07c-0.003,0.004-0.009,0.004-0.012,0.008l-0.417,0.574  c-0.004,0.006-0.001,0.013-0.005,0.019c-0.014,0.021-0.031,0.04-0.04,0.065l-0.18,0.482c-0.003,0.006-0.001,0.013-0.003,0.02  c-0.002,0.006-0.006,0.01-0.008,0.016l-0.124,0.484c-0.001,0.005,0.001,0.01-0.001,0.015c-0.001,0.006-0.005,0.011-0.006,0.017  l-0.078,0.482c-0.002,0.01,0.002,0.02,0.001,0.029s-0.005,0.018-0.005,0.027v0.496c0,0.007,0.003,0.013,0.004,0.02  c0,0.007-0.003,0.013-0.002,0.02l0.056,0.484c0.001,0.005,0.005,0.007,0.006,0.012c0.001,0.009-0.001,0.018,0.001,0.027l0.112,0.482  c0.001,0.005,0.007,0.008,0.008,0.013c0.003,0.009,0.001,0.019,0.005,0.028l0.168,0.463c0.002,0.005,0.008,0.008,0.01,0.012  c0.004,0.01,0.004,0.019,0.008,0.027l0.237,0.463c0.004,0.008,0.013,0.011,0.017,0.018c0.004,0.005,0,0.011,0.004,0.016l0.156,0.234  c0.005,0.008,0.014,0.011,0.02,0.018c0.004,0.005,0.001,0.012,0.005,0.016l0.519,0.609c0.002,0.002,0.004,0.002,0.004,0.004  c0.001,0,0.001,0.001,0.002,0.002l0.551,0.617c0.002,0.004,0.007,0.004,0.01,0.008c0.002,0.002,0.001,0.006,0.004,0.008l0.584,0.584  c0.002,0.002,0.006,0.001,0.007,0.003c0.002,0.002,0.001,0.005,0.003,0.007l0.619,0.574c0.002,0.002,0.006,0.001,0.008,0.003  s0.002,0.005,0.004,0.007l0.664,0.562c0.002,0.002,0.005,0.001,0.007,0.002c0.003,0.002,0.002,0.006,0.005,0.008l0.707,0.551  c0.002,0.002,0.006,0.001,0.008,0.003s0.002,0.005,0.004,0.007l0.744,0.527c0,0,0,0,0.001,0c0.001,0.002,0.001,0.003,0.003,0.004  l0.766,0.527c0.002,0.001,0.004,0.001,0.006,0.002c0.005,0.004,0.008,0.009,0.013,0.012l0.81,0.484c0,0,0.001,0,0.002,0  c0,0.001,0.001,0.002,0.002,0.002l0.832,0.484c0.001,0.001,0.003,0,0.005,0.002c0,0,0,0,0.001,0l0.867,0.484  c0.004,0.002,0.008,0.001,0.012,0.003c0.004,0.003,0.007,0.007,0.012,0.009l0.416,0.191c0.004,0.002,0.008,0.001,0.012,0.003  c0.004,0.001,0.006,0.004,0.009,0.005l0.438,0.17c0.002,0,0.003,0,0.004,0.001c0.002,0,0.002,0.001,0.002,0.001l0.463,0.168  c0.006,0.003,0.014,0.002,0.02,0.004c0.005,0.001,0.008,0.005,0.014,0.006l0.482,0.123c0.001,0,0.002,0,0.003,0  c0.003,0.001,0.005,0.003,0.008,0.004l0.507,0.113c0.002,0,0.004,0,0.006,0c0.001,0.001,0.002,0.002,0.003,0.002l0.517,0.102  c0.006,0.001,0.012,0.001,0.018,0.002c0.003,0,0.005,0.002,0.008,0.002l0.539,0.066c0.009,0.001,0.018,0.001,0.025,0.001  l0.516,0.046c0.008,0,0.016,0,0.023,0l0.552,0.012c0.003,0,0.005,0,0.007,0s0.004,0,0.007,0l0.551-0.012c0.003,0,0.005,0,0.007,0  l0.551-0.021c0.002,0,0.002-0.001,0.004-0.001c0.008,0,0.017,0,0.025-0.001l0.553-0.068c0.002,0,0.002-0.002,0.004-0.002  s0.004,0,0.005,0l0.675-0.1c0.048-0.008,0.092-0.024,0.131-0.048c0.001-0.001,0.002-0.001,0.003-0.001l2.337-1.461l0,0l0.304-0.187  c0.001-0.001,0.002-0.001,0.003-0.001l0.136-0.078c0.134-0.078,0.192-0.228,0.165-0.371l0.092-0.172  c0.092-0.17,0.027-0.383-0.143-0.475c-0.172-0.092-0.383-0.027-0.475,0.145l-0.131,0.244l-6.174-5.726l-3.408-3.802  c-0.004-0.005-0.011-0.003-0.016-0.008c-0.018-0.018-0.031-0.038-0.054-0.053l-0.259-0.168c-0.005-0.004-0.011-0.004-0.016-0.007  c-0.006-0.003-0.009-0.008-0.014-0.011l-0.232-0.121c-0.002,0-0.002-0.002-0.003-0.002l-0.258-0.135  c-0.007-0.003-0.013-0.003-0.019-0.006c-0.009-0.004-0.015-0.011-0.023-0.014l-0.271-0.1l0,0c-0.002,0-0.002-0.002-0.004-0.002  l-0.281-0.1c-0.001,0-0.002,0-0.003-0.001c-0.004-0.001-0.007-0.004-0.01-0.005l-0.291-0.09c-0.003-0.001-0.005,0-0.009-0.001  c-0.005-0.001-0.009-0.006-0.015-0.007l-0.327-0.078c-0.002,0-0.003,0.001-0.005,0.001c-0.001,0-0.001-0.001-0.002-0.001  l-0.313-0.068c-0.002,0-0.004-0.002-0.006-0.002L61.359,60.9c-0.006-0.001-0.011,0.001-0.017,0  c-0.007-0.001-0.011-0.005-0.019-0.006L61,60.861c-0.001,0-0.002,0-0.002,0l-0.325-0.045c-0.009-0.001-0.017,0.002-0.026,0.002  c-0.007,0-0.014-0.004-0.021-0.004h-0.327l-0.35-0.021c-0.007,0-0.014,0.003-0.02,0.004c-0.008,0-0.016-0.004-0.023-0.004  l-0.359,0.021c-0.004,0-0.007,0.003-0.012,0.003c-0.004,0.001-0.009-0.001-0.014-0.001l-0.324,0.045h-0.001l-0.338,0.033  c-0.009,0.001-0.015,0.006-0.023,0.008c-0.011,0.002-0.021-0.001-0.032,0.002l-0.338,0.09c0,0-0.001,0.001-0.002,0.001l-0.324,0.075  c-0.01,0.002-0.016,0.008-0.023,0.011c-0.007,0.002-0.013,0.001-0.02,0.003l-0.303,0.111c-0.002,0.001-0.003,0.002-0.005,0.003  l-0.274,0.099c-0.008,0.003-0.014,0.01-0.021,0.014c-0.009,0.004-0.018,0.004-0.026,0.008l-0.27,0.146  c-0.001,0-0.001,0.001-0.001,0.001c-0.001,0.001-0.002,0-0.004,0.001l-0.258,0.146c-0.008,0.004-0.013,0.012-0.02,0.017  c-0.004,0.003-0.01,0-0.014,0.003l-0.236,0.168C56.664,61.801,56.664,61.802,56.664,61.803z M57.097,62.354l0.202-0.145l0.227-0.128  c0.002-0.001,0.004,0,0.005-0.001l0.247-0.135l0.256-0.092c0.001,0,0.002-0.002,0.003-0.002l0.288-0.105l0.311-0.072  c0.004-0.001,0.006-0.003,0.008-0.004c0.002,0,0.002,0,0.004,0l0.3-0.08l0.318-0.031c0.002,0,0.003-0.002,0.005-0.002  c0.003,0,0.006,0,0.008,0l0.31-0.043c0.001,0,0.001,0,0.003,0l0.338-0.021l0.328,0.021c0.008,0,0.014,0,0.021,0l0,0h0.33l0.31,0.043  c0.002,0,0.004,0,0.006,0s0.003,0.002,0.005,0.002l0.312,0.032l0.298,0.061c0.001,0,0.002,0.001,0.003,0.001l0.315,0.068  c0.001,0,0.001,0,0.003,0l0.298,0.071l0.273,0.085c0,0,0,0,0.001,0l0.271,0.097c0.002,0.001,0.004,0.002,0.006,0.003l0.244,0.09  l0.24,0.125c0.002,0.002,0.003,0.003,0.004,0.004l0.223,0.116l0.203,0.131l3.391,3.782c0.006,0.006,0.013,0.008,0.018,0.013  c0.004,0.003,0.002,0.008,0.006,0.011l6.109,5.666l-2.047,1.28l-0.591,0.087c-0.001,0-0.001,0-0.003,0l-0.542,0.067l-0.532,0.021  c-0.001,0-0.001,0-0.001,0l-0.536,0.012l-0.543-0.012l-0.507-0.045c-0.001,0-0.001,0-0.002,0l-0.513-0.062l-0.504-0.1l-0.487-0.108  c-0.001-0.001-0.001-0.001-0.001-0.001l-0.463-0.117l-0.449-0.164c-0.002-0.001-0.004,0-0.007-0.001l-0.405-0.157l0,0l-0.416-0.191  c0,0,0,0-0.001,0l-0.843-0.471c0,0-0.001,0-0.002-0.001l-0.82-0.478l-0.794-0.475l-0.757-0.522c-0.001,0-0.001-0.001-0.002-0.001  l-0.729-0.518c-0.001,0-0.001-0.002-0.002-0.002l-0.695-0.542v-0.001l-0.666-0.562c0,0,0,0-0.001,0l-0.604-0.562l-0.562-0.561  l-0.545-0.611l-0.506-0.595l-0.131-0.196l-0.223-0.435l-0.152-0.416l-0.103-0.442l-0.052-0.443v-0.449l0.072-0.442l0.113-0.445  l0.158-0.423L57.097,62.354z"></path><path d="M93.608,53.858l-0.01-0.081c-0.001-0.01-0.007-0.018-0.009-0.027s0-0.021-0.003-0.031l-0.079-0.27  c-0.002-0.007-0.007-0.012-0.01-0.018c-0.002-0.007-0.001-0.014-0.004-0.02l-0.113-0.27c-0.002-0.006-0.007-0.009-0.01-0.014  c-0.002-0.006-0.002-0.011-0.004-0.016l-0.078-0.146c-0.021-0.038-0.049-0.068-0.079-0.096c-0.001-0.001-0.001-0.003-0.002-0.004  l-0.004-0.004c-0.003-0.002-0.005-0.004-0.007-0.006l-0.293-0.25c-0.004-0.004-0.01-0.001-0.014-0.005  c-0.004-0.003-0.004-0.01-0.008-0.013l-0.326-0.236c-0.003-0.002-0.007,0-0.01-0.003c-0.008-0.005-0.012-0.012-0.02-0.017  l-0.541-0.314c-0.002-0.001-0.004,0-0.006-0.001c-0.003-0.002-0.005-0.005-0.008-0.007l-0.562-0.293  c-0.005-0.002-0.01-0.002-0.015-0.004c-0.007-0.003-0.011-0.009-0.018-0.012l-0.618-0.246c0,0-0.001,0-0.002,0l-0.652-0.26  c-0.006-0.002-0.012-0.001-0.018-0.003s-0.011-0.007-0.018-0.009l-0.686-0.191c-0.002,0-0.002,0-0.003,0l-0.696-0.191  c-0.004-0.001-0.006,0.002-0.008,0.001c-0.006-0.001-0.011-0.006-0.018-0.007l-0.74-0.146c-0.004,0-0.007,0.002-0.01,0.002  c-0.005-0.001-0.008-0.004-0.012-0.004l-0.766-0.104c-0.002,0-0.004,0-0.006,0l0,0l-0.766-0.09c-0.005-0.001-0.01,0.002-0.014,0.001  c-0.004,0-0.008-0.003-0.012-0.003l-0.775-0.033c-0.001,0-0.002,0.001-0.002,0.001c-0.002,0-0.003-0.001-0.004-0.001l-0.799-0.021  c-0.004,0-0.008,0.002-0.012,0.003c-0.004,0-0.005-0.003-0.008-0.003L83.96,50.42l-0.394,0.01c-0.005,0-0.009,0.003-0.014,0.003  c-0.006,0.001-0.012-0.002-0.018-0.001l-0.383,0.047c-0.005,0-0.008,0.003-0.012,0.004s-0.008-0.001-0.011,0l-0.351,0.064  l-0.37,0.057c-0.005,0.001-0.009,0.004-0.015,0.005s-0.012,0-0.018,0.001l-0.359,0.09c-0.003,0.001-0.005,0.002-0.008,0.003  c-0.002,0.001-0.004,0-0.007,0.001l-0.349,0.102c-0.002,0.001-0.004,0.002-0.006,0.003s-0.004,0-0.006,0.001l-0.338,0.113  c-0.002,0-0.002,0.002-0.004,0.002c-0.004,0.002-0.007,0.001-0.01,0.002l-0.325,0.123c-0.002,0.001-0.003,0.003-0.005,0.004  c-0.002,0-0.002,0-0.004,0l-0.303,0.123c-0.006,0.002-0.009,0.007-0.014,0.009c-0.004,0.002-0.008,0.001-0.012,0.003l-0.293,0.146  c-0.006,0.004-0.01,0.01-0.018,0.014c-0.003,0.002-0.008,0-0.012,0.002l-0.27,0.17c-0.001,0.001-0.002,0.002-0.003,0.003  s-0.001,0.001-0.002,0.001l-0.259,0.168c-0.006,0.004-0.008,0.01-0.014,0.014c-0.002,0.002-0.006,0-0.008,0.002l-0.146,0.113  c-0.005,0.004-0.004,0.011-0.008,0.015c-0.006,0.005-0.014,0.002-0.02,0.007l-0.057,0.054c-0.135-0.016-0.272,0.047-0.345,0.173  l-0.304,0.529c-0.007,0.012-0.008,0.025-0.013,0.037c-0.006,0.015-0.017,0.025-0.021,0.041l-0.022,0.08c0,0,0,0,0,0.001l-0.1,0.331  c-0.004,0.013-0.001,0.025-0.004,0.038c-0.002,0.014-0.009,0.024-0.011,0.038l-0.033,0.484c0,0.018,0.006,0.032,0.007,0.049  c0.001,0.016-0.003,0.031,0.001,0.047l0.102,0.482c0.001,0.007,0.008,0.01,0.01,0.018c0.005,0.018,0.004,0.035,0.012,0.053  l0.191,0.428c0.015,0.034,0.045,0.054,0.068,0.08c0.011,0.013,0.008,0.031,0.021,0.043l0.338,0.293  c0.007,0.006,0.016,0.004,0.023,0.009c0.006,0.005,0.006,0.014,0.012,0.019l0.609,0.402c0.004,0.003,0.009,0.002,0.013,0.004  c0.011,0.007,0.017,0.016,0.028,0.021l0.697,0.338c0.006,0.003,0.012,0.002,0.019,0.004c0.005,0.002,0.007,0.006,0.013,0.008  l0.73,0.271c0,0,0,0,0.001,0l0.489,0.189l0.552,0.213c0.005,0.002,0.009,0.001,0.013,0.002c0.006,0.002,0.009,0.006,0.014,0.008  l0.574,0.168c0.001,0,0.002,0.002,0.004,0.002l0.596,0.168c0.007,0.002,0.013,0.001,0.02,0.003c0.002,0,0.004,0.003,0.008,0.003  l0.617,0.125c0.004,0,0.007,0,0.01,0.001c0.002,0,0.002,0.001,0.004,0.001l0.619,0.102c0.004,0,0.01,0,0.014,0.001l0.634,0.089  c0.005,0.001,0.011,0.001,0.017,0.001c0,0,0.001,0.001,0.002,0.001l0.651,0.057c0.003,0,0.005,0.002,0.008,0.002l0.652,0.045  c0.005,0,0.009,0,0.013,0l0.663,0.023c0.004,0,0.008,0,0.012,0s0.008,0,0.012,0l0.665-0.023c0.004,0,0.007,0,0.01,0l0.73-0.045  c0.006,0,0.009-0.003,0.014-0.004c0.014-0.001,0.027-0.001,0.041-0.004l0.551-0.123c0.002-0.001,0.004-0.002,0.007-0.003  c0.002-0.001,0.004-0.001,0.006-0.001l0.473-0.123c0.003-0.001,0.006-0.004,0.01-0.005c0.003-0.001,0.005,0,0.007-0.001l0.463-0.146  c0.007-0.002,0.012-0.008,0.019-0.011c0.005-0.002,0.011-0.001,0.015-0.003l0.439-0.191c0.001-0.001,0.002-0.002,0.004-0.003  s0.003,0,0.004-0.001l0.406-0.189c0.004-0.002,0.006-0.006,0.01-0.008c0.002-0.001,0.006,0,0.008-0.002l0.395-0.215  c0.001-0.001,0.002-0.002,0.003-0.003s0.003,0,0.005-0.001l0.348-0.201c0.008-0.004,0.012-0.012,0.019-0.017  c0.005-0.003,0.01-0.002,0.015-0.005l0.26-0.193c0.008-0.006,0.006-0.017,0.014-0.022c0.007-0.007,0.018-0.004,0.025-0.011  l0.59-0.592l0.007-0.004c0.003-0.002,0.002-0.005,0.005-0.007l0.016-0.017c0.003-0.003,0.002-0.007,0.004-0.01  c0.025-0.021,0.055-0.037,0.074-0.066l0.518-0.775c0.107-0.16,0.064-0.377-0.097-0.484C93.768,53.863,93.687,53.85,93.608,53.858z   M92.925,54.33l-0.039,0.229l-0.068,0.217l-0.007,0.011l-0.561,0.562l-0.23,0.172l-0.316,0.184c-0.002,0-0.002,0-0.004,0  l-0.393,0.215c-0.002,0-0.002,0.002-0.003,0.002l-0.382,0.179l-0.408,0.178l-0.451,0.144c-0.001,0-0.002,0.001-0.002,0.001  l-0.454,0.118c-0.001,0-0.002,0.001-0.003,0.002l-0.508,0.113l-0.703,0.043c-0.001,0-0.002,0-0.002,0l-0.642,0.023l-0.637-0.023  c-0.001,0-0.001,0-0.002,0l-0.645-0.045c-0.001,0-0.001,0-0.002,0l-0.642-0.056l-0.634-0.089c-0.001,0-0.001,0-0.002,0l-0.61-0.1  c-0.002,0-0.003,0-0.005,0l-0.581-0.117l-0.581-0.164c-0.001,0-0.003-0.002-0.005-0.002l-0.566-0.166l-0.531-0.205l-0.495-0.191  c-0.001,0-0.001,0-0.002,0c-0.001-0.001-0.001-0.002-0.003-0.002l-0.717-0.267l-0.658-0.319l-0.57-0.379l-0.261-0.226l-0.146-0.325  l-0.083-0.396l0.027-0.398l0.069-0.229l0.418-0.508l0.155-0.146l0.122-0.095l0.244-0.159c0,0,0.001,0,0.002,0l0.246-0.156  l0.287-0.143l0,0l0.279-0.113c0.001-0.001,0.002-0.002,0.004-0.003l0.296-0.112c0.001,0,0.002,0,0.003,0l0.326-0.109l0.34-0.099  l0.345-0.086l0.35-0.054c0.001,0,0.003-0.001,0.003-0.001c0.003-0.001,0.006-0.001,0.008-0.001l0.341-0.062l0.368-0.045l0.374-0.01  l0.767-0.021l0.782,0.021c0.001,0,0.001,0,0.001,0l0.762,0.033l0.754,0.088c0.005,0.001,0.01,0,0.014,0.001l0.741,0.1l0.714,0.142  l0.684,0.188c0.004,0.001,0.007,0,0.01,0.001l0.658,0.184l0.633,0.252c0.001,0,0.002,0.001,0.002,0.001l0.595,0.236l0.548,0.285  l0.519,0.302l0.301,0.219l0.241,0.207l0.038,0.07l0.101,0.239l0.064,0.222l0.027,0.227L92.925,54.33z"></path></svg>